<?xml version="1.0" encoding="UTF-8"?>
<svg width="31px" height="31px" viewBox="0 0 31 31" version="1.1" xmlns="http://www.w3.org/2000/svg" xmlns:xlink="http://www.w3.org/1999/xlink">
    <g id="Symbols" stroke="none" stroke-width="1" fill="none" fill-rule="evenodd">
        <g id="Main-Menu" transform="translate(-1314.000000, -32.000000)" fill="#FFFFFF">
            <path d="M1337.42816,46 L1331.895,42.1667219 L1331.895,36 L1341.895,42.9054524 L1337.42816,46 Z M1339.895,47.5002341 L1342.895,45 L1342.895,50 L1339.895,47.5002341 Z M1331.895,52.8332781 L1337.42816,49 L1341.895,52.0945476 L1331.895,59 L1331.895,52.8332781 Z M1323.36162,49 L1328.895,52.8332781 L1328.895,59 L1318.895,52.0945476 L1323.36162,49 Z M1320.895,47.5002341 L1317.895,50 L1317.895,45 L1320.895,47.5002341 Z M1328.895,42.1667219 L1323.36162,46 L1318.895,42.9054524 L1328.895,36 L1328.895,42.1667219 Z M1330.395,50 L1325.895,47.0001987 L1330.395,44 L1334.895,47.0001987 L1330.395,50 Z M1344.87318,42.5458968 C1344.86632,42.5079067 1344.86026,42.4707516 1344.85056,42.434014 C1344.8445,42.4118879 1344.83723,42.3910142 1344.83036,42.3693056 C1344.82026,42.3367427 1344.81016,42.3041798 1344.79723,42.2720343 C1344.78834,42.2503257 1344.77824,42.2286171 1344.76855,42.207326 C1344.75481,42.1772679 1344.74067,42.1476273 1344.72451,42.1188216 C1344.71279,42.0975305 1344.70027,42.0774918 1344.68774,42.0570356 C1344.67037,42.0294824 1344.6526,42.0023466 1344.6332,41.9760458 C1344.61906,41.956842 1344.60452,41.9376382 1344.58917,41.9188519 C1344.56897,41.8938036 1344.54715,41.8700076 1344.52493,41.8466291 C1344.50796,41.8286777 1344.49099,41.8111438 1344.47362,41.7944449 C1344.45019,41.7727363 1344.42554,41.7518626 1344.40049,41.7314064 C1344.3811,41.7159599 1344.36211,41.700096 1344.34191,41.6859019 C1344.33505,41.6804747 1344.32818,41.6742126 1344.3209,41.6692029 L1330.60969,32.22387 C1330.177,31.9253767 1329.6126,31.9253767 1329.17991,32.22387 L1315.4691,41.6692029 C1315.46142,41.6742126 1315.45495,41.6804747 1315.44768,41.6859019 C1315.42748,41.700096 1315.40849,41.7159599 1315.3891,41.7314064 C1315.36446,41.7518626 1315.33941,41.7727363 1315.31638,41.7944449 C1315.2986,41.8111438 1315.28164,41.8286777 1315.26507,41.8466291 C1315.24245,41.8700076 1315.22103,41.8938036 1315.20043,41.9188519 C1315.18508,41.9376382 1315.17053,41.956842 1315.15639,41.9760458 C1315.137,42.0023466 1315.11922,42.0294824 1315.10185,42.0570356 C1315.08933,42.0774918 1315.0768,42.0975305 1315.06549,42.1188216 C1315.04893,42.1476273 1315.03479,42.1772679 1315.02145,42.207326 C1315.01176,42.2286171 1315.00125,42.2503257 1314.99277,42.2720343 C1314.98025,42.3041798 1314.96934,42.3367427 1314.95924,42.3693056 C1314.95237,42.3910142 1314.9451,42.4118879 1314.93944,42.434014 C1314.93015,42.4707516 1314.92328,42.5079067 1314.91682,42.5458968 C1314.91358,42.5651006 1314.90914,42.5838869 1314.90631,42.6030906 C1314.89904,42.660702 1314.895,42.7187307 1314.895,42.777177 L1314.895,52.2225099 C1314.895,52.2813736 1314.89904,52.3389849 1314.90631,52.3965962 C1314.90914,52.4162175 1314.91358,52.4350038 1314.91682,52.4542076 C1314.92328,52.4913627 1314.93015,52.5289353 1314.93944,52.5656729 C1314.9451,52.587799 1314.95237,52.6090901 1314.95924,52.6303813 C1314.96934,52.6633617 1314.98025,52.6959246 1314.99277,52.72807 C1315.00125,52.7501961 1315.01176,52.7710698 1315.02145,52.7923609 C1315.03479,52.822419 1315.04893,52.8520596 1315.06549,52.8812827 C1315.0768,52.9021564 1315.08933,52.9226126 1315.10185,52.9422338 C1315.11922,52.9702045 1315.137,52.9969228 1315.15639,53.0236411 C1315.17053,53.0436798 1315.18508,53.0624661 1315.20043,53.0812524 C1315.22103,53.1058833 1315.24245,53.1300968 1315.26507,53.1530578 C1315.28164,53.1705917 1315.2986,53.1885431 1315.31638,53.2048245 C1315.33941,53.2269506 1315.36446,53.2482417 1315.3891,53.2686979 C1315.40849,53.2841444 1315.42748,53.2995909 1315.44768,53.3142025 C1315.45495,53.3196297 1315.46142,53.3254743 1315.4691,53.330484 L1329.17991,62.7758169 C1329.39645,62.9252723 1329.64532,63 1329.895,63 C1330.14427,63 1330.39355,62.9252723 1330.60969,62.7758169 L1344.3209,53.330484 C1344.32818,53.3254743 1344.33505,53.3196297 1344.34191,53.3142025 C1344.36211,53.2995909 1344.3811,53.2841444 1344.40049,53.2686979 C1344.42554,53.2482417 1344.45019,53.2269506 1344.47362,53.2048245 C1344.49099,53.1885431 1344.50796,53.1705917 1344.52493,53.1530578 C1344.54715,53.1300968 1344.56897,53.1058833 1344.58917,53.0812524 C1344.60452,53.0624661 1344.61906,53.0436798 1344.6332,53.0236411 C1344.6526,52.9969228 1344.67037,52.9702045 1344.68774,52.9422338 C1344.70027,52.9226126 1344.71279,52.9021564 1344.72451,52.8812827 C1344.74067,52.8520596 1344.75481,52.822419 1344.76855,52.7923609 C1344.77824,52.7710698 1344.78834,52.7501961 1344.79723,52.72807 C1344.81016,52.6959246 1344.82026,52.6633617 1344.83036,52.6303813 C1344.83723,52.6090901 1344.8445,52.587799 1344.85056,52.5656729 C1344.86026,52.5289353 1344.86632,52.4913627 1344.87318,52.4542076 C1344.87642,52.4350038 1344.88086,52.4162175 1344.88328,52.3965962 C1344.89056,52.3389849 1344.895,52.2813736 1344.895,52.2225099 L1344.895,42.777177 C1344.895,42.7187307 1344.89056,42.660702 1344.88328,42.6030906 C1344.88086,42.5838869 1344.87642,42.5651006 1344.87318,42.5458968 L1344.87318,42.5458968 Z" id="Shape"></path>
        </g>
    </g>
</svg>