<?xml version="1.0" encoding="UTF-8"?>
<svg width="757px" height="757px" viewBox="0 0 757 757" version="1.1" xmlns="http://www.w3.org/2000/svg" xmlns:xlink="http://www.w3.org/1999/xlink">
    <title>Logo Only</title>
    <g id="Logo-Only" stroke="none" stroke-width="1" fill="none" fill-rule="evenodd">
        <g id="Logo-Main-Copy" transform="translate(0.000000, 0.000000)">
            <polygon id="Russell-Blast" fill="#5970E2" points="0 276.929068 264.057922 18.7723583 293.39604 18.7723583 304.696964 31.0197545 315.896543 18 328.696581 42.2887998 349.315528 18.7723583 364.646349 18.7723583 362.593345 44.7015304 375.673726 24.793118 394.757164 18 417.036487 36.4262627 427.71525 24.793118 446.48549 18 463.830322 31.0361905 475.383026 18.7723583 516.081393 18.7723583 515.924421 27.9919739 523.692209 18.7723583 532.458435 62.3719177 568.030775 18.7723583 576.147853 65.1623268 606 76 0 700"></polygon>
            <polygon id="WARNER-Blast" fill="#B339F9" points="86 350.600254 350 83.7733333 367.203539 100.773333 384.480578 83.7310717 398.466756 98.6188127 416.534615 83.5725133 420.723234 108.464327 444.432861 83.4249621 462.414072 85.3229402 465.405433 106.246396 485.339578 84.2056293 523.472745 95.0741528 534.751084 84.0356889 546.812877 84 553.696847 102.228571 570.069198 84.4249621 579.777739 96.8152381 588.926693 84 629.324283 84 625.324283 94 634.258104 83.7733333 665.757294 87 672.926693 102.228571 666.926693 119.793121 679 141.354468 89 736.134348"></polygon>
            <path d="M380.476202,141 L390.828001,106.157359 L391.27686,106.157359 L401.628659,141 L415.010253,141 L431.702179,83.5461121 L416.384882,83.5461121 L407.688249,121.27828 L407.211337,121.27828 L397.308396,83.5461121 L384.796465,83.5461121 L374.893525,121.194119 L374.416613,121.194119 L365.748033,83.5461121 L350.402683,83.5461121 L367.122662,141 L380.476202,141 Z M440.309618,141 L444.096862,128.936928 L463.930797,128.936928 L467.718041,141 L482.642586,141 L463.257509,83.5461121 L444.77015,83.5461121 L425.385073,141 L440.309618,141 Z M460.620465,118.388753 L447.407193,118.388753 L453.775373,98.0217987 L454.224232,98.0217987 L460.620465,118.388753 Z M499.4415,141 L499.4415,121.334387 L506.567129,121.334387 L517.059196,141 L532.208171,141 L520.285367,119.118148 C526.597439,116.256675 530.244415,110.61789 530.244415,102.678706 C530.244415,90.8681163 522.193015,83.5461121 509.288333,83.5461121 L485.55494,83.5461121 L485.55494,141 L499.4415,141 Z M506.286592,110.393461 L499.4415,110.393461 L499.4415,94.7395209 L506.286592,94.7395209 C512.514504,94.7395209 515.852889,97.3485109 515.852889,102.678706 C515.852889,108.0089 512.514504,110.393461 506.286592,110.393461 Z M548.445913,141 L548.445913,107.840578 L548.81061,107.840578 L571.67434,141 L583.456876,141 L583.456876,83.5461121 L569.59837,83.5461121 L569.59837,116.649426 L569.121457,116.649426 L546.51021,83.5461121 L534.559353,83.5461121 L534.559353,141 L548.445913,141 Z M628.926588,141 L628.926588,129.72243 L602.752527,129.72243 L602.752527,117.911841 L626.878671,117.911841 L626.878671,106.606217 L602.752527,106.606217 L602.752527,94.8236819 L628.926588,94.8236819 L628.926588,83.5461121 L588.865967,83.5461121 L588.865967,141 L628.926588,141 Z M648.222139,141 L648.222139,121.334387 L655.347767,121.334387 L665.839835,141 L680.988809,141 L669.066005,119.118148 C675.378078,116.256675 679.025053,110.61789 679.025053,102.678706 C679.025053,90.8681163 670.973654,83.5461121 658.068972,83.5461121 L634.335579,83.5461121 L634.335579,141 L648.222139,141 Z M655.067231,110.393461 L648.222139,110.393461 L648.222139,94.7395209 L655.067231,94.7395209 C661.295142,94.7395209 664.633527,97.3485109 664.633527,102.678706 C664.633527,108.0089 661.295142,110.393461 655.067231,110.393461 Z" id="WARNER" fill="#FFFFFF" fill-rule="nonzero"></path>
            <path d="M279.324796,75.3371429 L279.324796,56.6666667 L284.616812,56.6666667 L294.539341,75.3371429 L311.187141,75.3371429 L299.721107,54.2361905 C305.72975,51.3361905 309.312885,45.84 309.312885,37.9961905 C309.312885,25.9542857 300.906298,18.7733333 288.365323,18.7733333 L264,18.7733333 L264,75.3371429 L279.324796,75.3371429 Z M284.727062,44.7352381 L279.324796,44.7352381 L279.324796,31.0361905 L284.727062,31.0361905 C290.101766,31.0361905 293.326588,33.1352381 293.326588,37.9961905 C293.326588,42.8295238 290.101766,44.7352381 284.727062,44.7352381 Z M340.183571,76 C354.681489,76 364.548894,67.9352381 364.548894,55.0095238 L364.548894,18.7733333 L349.224098,18.7733333 L349.224098,53.6838095 C349.224098,58.9590476 345.448024,62.7428571 340.183571,62.7428571 C334.919118,62.7428571 331.143044,58.9590476 331.143044,53.6838095 L331.143044,18.7733333 L315.818248,18.7733333 L315.818248,55.0095238 C315.818248,67.9352381 325.575402,76 340.183571,76 Z M394.758125,76 C409.063105,76 417.635068,69.8133333 417.690194,58.6552381 C417.635068,50.0380952 412.508428,43.9895238 400.050141,41.3104762 L395.419627,40.3161905 C390.072486,39.1838095 387.674541,37.6095238 387.812354,34.9028571 C387.839917,32.4171429 389.90711,30.5942857 394.647875,30.5942857 C399.609139,30.5942857 401.951959,32.7761905 402.255147,36.4495238 L416.918441,36.4495238 C416.863316,25.3466667 408.318916,18 394.647875,18 C381.224897,18 371.743369,25.2361905 371.826056,36.007619 C371.798494,44.8457143 377.917387,49.7619048 387.922605,51.9161905 L393.545371,53.1314286 C399.82964,54.512381 401.979522,56.0866667 402.034647,58.6552381 C401.979522,61.4447619 399.443764,63.4057143 394.537624,63.4057143 C388.666794,63.4057143 385.193909,60.6438095 384.945846,55.4514286 L370.392802,55.4514286 C370.447927,69.647619 380.039706,76 394.758125,76 Z M446.466121,76 C460.771102,76 469.343065,69.8133333 469.39819,58.6552381 C469.343065,50.0380952 464.216424,43.9895238 451.758137,41.3104762 L447.127623,40.3161905 C441.780482,39.1838095 439.382538,37.6095238 439.520351,34.9028571 C439.547913,32.4171429 441.615107,30.5942857 446.355871,30.5942857 C451.317136,30.5942857 453.659955,32.7761905 453.963144,36.4495238 L468.626438,36.4495238 C468.571312,25.3466667 460.026912,18 446.355871,18 C432.932893,18 423.451365,25.2361905 423.534053,36.007619 C423.50649,44.8457143 429.625383,49.7619048 439.630601,51.9161905 L445.253368,53.1314286 C451.537637,54.512381 453.687518,56.0866667 453.742643,58.6552381 C453.687518,61.4447619 451.15176,63.4057143 446.245621,63.4057143 C440.374791,63.4057143 436.901905,60.6438095 436.653842,55.4514286 L422.100798,55.4514286 C422.155924,69.647619 431.747702,76 446.466121,76 Z M515.81417,75.3371429 L515.81417,62.9638095 L490.566845,62.9638095 L490.566845,53.2419048 L513.829665,53.2419048 L513.829665,40.8685714 L490.566845,40.8685714 L490.566845,31.1466667 L515.924421,31.1466667 L515.924421,18.7733333 L475.242049,18.7733333 L475.242049,75.3371429 L515.81417,75.3371429 Z M561.67886,75.3371429 L561.67886,62.9638095 L538.857042,62.9638095 L538.857042,18.7733333 L523.532246,18.7733333 L523.532246,75.3371429 L561.67886,75.3371429 Z M606,75.3371429 L606,62.9638095 L583.178182,62.9638095 L583.178182,18.7733333 L567.853386,18.7733333 L567.853386,75.3371429 L606,75.3371429 Z" id="RUSSELL" fill="#FFFFFF" fill-rule="nonzero"></path>
        </g>
    </g>
</svg>